<?xml version="1.0" encoding="UTF-8" standalone="no"?>
<!-- Created with Inkscape (http://www.inkscape.org/) -->

<svg
   width="43.708958mm"
   height="4.5051532mm"
   viewBox="0 0 43.708958 4.5051532"
   version="1.1"
   id="svg5"
   sodipodi:docname="curriculum_link.svg"
   inkscape:version="1.2.2 (b0a8486541, 2022-12-01)"
   xmlns:inkscape="http://www.inkscape.org/namespaces/inkscape"
   xmlns:sodipodi="http://sodipodi.sourceforge.net/DTD/sodipodi-0.dtd"
   xmlns="http://www.w3.org/2000/svg"
   xmlns:svg="http://www.w3.org/2000/svg">
  <sodipodi:namedview
     id="namedview7"
     pagecolor="#ffffff"
     bordercolor="#000000"
     borderopacity="0.25"
     inkscape:showpageshadow="2"
     inkscape:pageopacity="0.0"
     inkscape:pagecheckerboard="0"
     inkscape:deskcolor="#d1d1d1"
     inkscape:document-units="mm"
     showgrid="false"
     inkscape:zoom="1"
     inkscape:cx="-86.5"
     inkscape:cy="112.5"
     inkscape:window-width="1920"
     inkscape:window-height="974"
     inkscape:window-x="-11"
     inkscape:window-y="-11"
     inkscape:window-maximized="1"
     inkscape:current-layer="layer1" />
  <defs
     id="defs2">
    <rect
       x="196.73026"
       y="373.20886"
       width="429.62415"
       height="91.132401"
       id="rect113" />
  </defs>
  <g
     inkscape:label="Layer 1"
     inkscape:groupmode="layer"
     id="layer1"
     transform="translate(-52.281047,-99.972234)">
    <g
       aria-label="Curriculum Vitae"
       transform="scale(0.26458333)"
       id="text111"
       style="font-size:24px;font-family:'Times New Roman';-inkscape-font-specification:'Times New Roman, ';white-space:pre;shape-inside:url(#rect113);display:inline;fill-opacity:0.9">
      <path
         d="m 211.17969,378.25798 0.36328,5.40234 h -0.36328 q -0.72657,-2.42578 -2.07422,-3.49219 -1.34766,-1.0664 -3.23438,-1.0664 -1.58203,0 -2.85937,0.80859 -1.27735,0.79688 -2.01563,2.55469 -0.72656,1.75781 -0.72656,4.37109 0,2.15625 0.69141,3.73828 0.6914,1.58204 2.07422,2.42579 1.39453,0.84375 3.17578,0.84375 1.54687,0 2.73047,-0.65625 1.18359,-0.66797 2.60156,-2.63672 l 0.36328,0.23437 q -1.19531,2.1211 -2.78906,3.10547 -1.59375,0.98438 -3.78516,0.98438 -3.94922,0 -6.11719,-2.92969 -1.61718,-2.17969 -1.61718,-5.13281 0,-2.37891 1.0664,-4.3711 1.06641,-1.99219 2.92969,-3.08203 1.875,-1.10156 4.08984,-1.10156 1.72266,0 3.39844,0.84375 0.49219,0.25781 0.70313,0.25781 0.3164,0 0.55078,-0.22266 0.30468,-0.3164 0.43359,-0.8789 z"
         id="path412" />
      <path
         d="m 222.89844,383.77751 v 6.50391 q 0,1.86328 0.082,2.28515 0.0937,0.41016 0.28125,0.57422 0.19922,0.16406 0.45703,0.16406 0.36328,0 0.82031,-0.19922 l 0.16406,0.41016 -3.21093,1.32422 h -0.52735 v -2.27344 q -1.38281,1.5 -2.10937,1.88672 -0.72656,0.38672 -1.53516,0.38672 -0.90234,0 -1.57031,-0.51563 -0.65625,-0.52734 -0.91406,-1.34765 -0.25782,-0.82031 -0.25782,-2.32031 v -4.79297 q 0,-0.76172 -0.16406,-1.05469 -0.16406,-0.29297 -0.49219,-0.44531 -0.3164,-0.16407 -1.16015,-0.15235 v -0.43359 h 3.76172 v 7.18359 q 0,1.5 0.51562,1.96875 0.52735,0.46875 1.26563,0.46875 0.5039,0 1.13672,-0.3164 0.64453,-0.31641 1.52343,-1.20703 v -6.08204 q 0,-0.91406 -0.33984,-1.23046 -0.32813,-0.32813 -1.38281,-0.35157 v -0.43359 z"
         id="path414" />
      <path
         d="m 228.62891,383.4611 v 2.41407 q 1.34765,-2.41407 2.76562,-2.41407 0.64453,0 1.06641,0.39844 0.42187,0.38672 0.42187,0.90234 0,0.45704 -0.30469,0.77344 -0.30468,0.31641 -0.72656,0.31641 -0.41015,0 -0.92578,-0.39844 -0.50391,-0.41016 -0.75,-0.41016 -0.21094,0 -0.45703,0.23438 -0.52734,0.48047 -1.08984,1.58203 v 5.14453 q 0,0.89063 0.22265,1.34766 0.15235,0.3164 0.53906,0.52734 0.38672,0.21094 1.11329,0.21094 v 0.42187 h -5.4961 v -0.42187 q 0.82031,0 1.21875,-0.25781 0.29297,-0.1875 0.41016,-0.59766 0.0586,-0.19922 0.0586,-1.13672 v -4.16015 q 0,-1.875 -0.082,-2.22657 -0.0703,-0.36328 -0.28125,-0.52734 -0.19922,-0.16406 -0.50391,-0.16406 -0.36328,0 -0.82031,0.17578 l -0.11719,-0.42188 3.2461,-1.3125 z"
         id="path416" />
      <path
         d="m 236.62109,383.4611 v 2.41407 q 1.34766,-2.41407 2.76563,-2.41407 0.64453,0 1.0664,0.39844 0.42188,0.38672 0.42188,0.90234 0,0.45704 -0.30469,0.77344 -0.30469,0.31641 -0.72656,0.31641 -0.41016,0 -0.92578,-0.39844 -0.50391,-0.41016 -0.75,-0.41016 -0.21094,0 -0.45703,0.23438 -0.52735,0.48047 -1.08985,1.58203 v 5.14453 q 0,0.89063 0.22266,1.34766 0.15234,0.3164 0.53906,0.52734 0.38672,0.21094 1.11328,0.21094 v 0.42187 H 233 v -0.42187 q 0.82031,0 1.21875,-0.25781 0.29297,-0.1875 0.41016,-0.59766 0.0586,-0.19922 0.0586,-1.13672 v -4.16015 q 0,-1.875 -0.082,-2.22657 -0.0703,-0.36328 -0.28125,-0.52734 -0.19922,-0.16406 -0.50391,-0.16406 -0.36328,0 -0.82031,0.17578 l -0.11719,-0.42188 3.2461,-1.3125 z"
         id="path418" />
      <path
         d="m 244.20312,377.84782 q 0.49219,0 0.83204,0.35156 0.35156,0.33985 0.35156,0.83204 0,0.49218 -0.35156,0.84375 -0.33985,0.35156 -0.83204,0.35156 -0.49218,0 -0.84375,-0.35156 -0.35156,-0.35157 -0.35156,-0.84375 0,-0.49219 0.33985,-0.83204 0.35156,-0.35156 0.85546,-0.35156 z m 0.97266,5.61328 v 8.625 q 0,1.00782 0.14063,1.34766 0.15234,0.32812 0.43359,0.49219 0.29297,0.16406 1.05469,0.16406 v 0.42187 h -5.21485 v -0.42187 q 0.78516,0 1.05469,-0.15234 0.26953,-0.15235 0.42188,-0.50391 0.16406,-0.35156 0.16406,-1.34766 v -4.13672 q 0,-1.74609 -0.10547,-2.26171 -0.082,-0.375 -0.25781,-0.51563 -0.17578,-0.15234 -0.48047,-0.15234 -0.32813,0 -0.79688,0.17578 l -0.16406,-0.42188 3.23438,-1.3125 z"
         id="path420" />
      <path
         d="m 257.25781,390.43376 q -0.43359,2.12109 -1.69922,3.26953 -1.26562,1.13672 -2.80078,1.13672 -1.82812,0 -3.1875,-1.53516 -1.35937,-1.53515 -1.35937,-4.14843 0,-2.53125 1.5,-4.11329 1.51172,-1.58203 3.62109,-1.58203 1.58203,0 2.60156,0.84375 1.01953,0.83203 1.01953,1.73438 0,0.44531 -0.29296,0.72656 -0.28125,0.26953 -0.79688,0.26953 -0.69141,0 -1.04297,-0.44531 -0.19922,-0.24609 -0.26953,-0.9375 -0.0586,-0.69141 -0.46875,-1.05469 -0.41016,-0.35156 -1.13672,-0.35156 -1.17187,0 -1.88672,0.86719 -0.94922,1.14843 -0.94922,3.03515 0,1.92188 0.9375,3.39844 0.94922,1.46484 2.55469,1.46484 1.14844,0 2.0625,-0.78515 0.64453,-0.53906 1.25391,-1.95703 z"
         id="path422" />
      <path
         d="m 268.20312,383.77751 v 6.50391 q 0,1.86328 0.082,2.28515 0.0937,0.41016 0.28125,0.57422 0.19921,0.16406 0.45703,0.16406 0.36328,0 0.82031,-0.19922 l 0.16406,0.41016 -3.21094,1.32422 h -0.52734 v -2.27344 q -1.38281,1.5 -2.10937,1.88672 -0.72657,0.38672 -1.53516,0.38672 -0.90234,0 -1.57031,-0.51563 -0.65625,-0.52734 -0.91407,-1.34765 -0.25781,-0.82031 -0.25781,-2.32031 v -4.79297 q 0,-0.76172 -0.16406,-1.05469 -0.16406,-0.29297 -0.49219,-0.44531 -0.3164,-0.16407 -1.16015,-0.15235 v -0.43359 h 3.76171 v 7.18359 q 0,1.5 0.51563,1.96875 0.52734,0.46875 1.26562,0.46875 0.50391,0 1.13672,-0.3164 0.64453,-0.31641 1.52344,-1.20703 v -6.08204 q 0,-0.91406 -0.33984,-1.23046 -0.32813,-0.32813 -1.38282,-0.35157 v -0.43359 z"
         id="path424" />
      <path
         d="m 274.48437,377.84782 v 14.23828 q 0,1.00782 0.14063,1.33594 0.15234,0.32813 0.45703,0.50391 0.30469,0.16406 1.13672,0.16406 v 0.42187 h -5.26172 v -0.42187 q 0.73828,0 1.00781,-0.15234 0.26953,-0.15235 0.42188,-0.50391 0.15234,-0.35156 0.15234,-1.34766 v -9.75 q 0,-1.8164 -0.082,-2.22656 -0.082,-0.42187 -0.26953,-0.57422 -0.17578,-0.15234 -0.45703,-0.15234 -0.30469,0 -0.77344,0.1875 l -0.19922,-0.41016 3.19922,-1.3125 z"
         id="path426" />
      <path
         d="m 286.87109,383.77751 v 6.50391 q 0,1.86328 0.082,2.28515 0.0937,0.41016 0.28125,0.57422 0.19922,0.16406 0.45704,0.16406 0.36328,0 0.82031,-0.19922 l 0.16406,0.41016 -3.21094,1.32422 h -0.52734 v -2.27344 q -1.38281,1.5 -2.10938,1.88672 -0.72656,0.38672 -1.53515,0.38672 -0.90235,0 -1.57031,-0.51563 -0.65625,-0.52734 -0.91407,-1.34765 -0.25781,-0.82031 -0.25781,-2.32031 v -4.79297 q 0,-0.76172 -0.16406,-1.05469 -0.16406,-0.29297 -0.49219,-0.44531 -0.31641,-0.16407 -1.16016,-0.15235 v -0.43359 h 3.76172 v 7.18359 q 0,1.5 0.51563,1.96875 0.52734,0.46875 1.26562,0.46875 0.50391,0 1.13672,-0.3164 0.64453,-0.31641 1.52344,-1.20703 v -6.08204 q 0,-0.91406 -0.33984,-1.23046 -0.32813,-0.32813 -1.38282,-0.35157 v -0.43359 z"
         id="path428" />
      <path
         d="m 292.64844,385.74626 q 1.17187,-1.17188 1.38281,-1.34766 0.52734,-0.44531 1.13672,-0.6914 0.60937,-0.2461 1.20703,-0.2461 1.00781,0 1.73437,0.58594 0.72657,0.58594 0.97266,1.69922 1.20703,-1.40625 2.03906,-1.83984 0.83203,-0.44532 1.71094,-0.44532 0.85547,0 1.51172,0.44532 0.66797,0.43359 1.05469,1.42968 0.25781,0.67969 0.25781,2.13282 v 4.61718 q 0,1.00782 0.15234,1.38282 0.11719,0.25781 0.4336,0.44531 0.3164,0.17578 1.03125,0.17578 v 0.42187 h -5.29688 v -0.42187 h 0.22266 q 0.6914,0 1.07812,-0.26953 0.26953,-0.1875 0.38672,-0.59766 0.0469,-0.19922 0.0469,-1.13672 v -4.61718 q 0,-1.3125 -0.31641,-1.85157 -0.45703,-0.75 -1.46484,-0.75 -0.6211,0 -1.25391,0.31641 -0.62109,0.30469 -1.51172,1.14844 l -0.0234,0.1289 0.0234,0.50391 v 5.12109 q 0,1.10157 0.11719,1.3711 0.12891,0.26953 0.46875,0.45703 0.33984,0.17578 1.16016,0.17578 v 0.42187 h -5.42579 v -0.42187 q 0.89063,0 1.21875,-0.21094 0.33985,-0.21094 0.46875,-0.63281 0.0586,-0.19922 0.0586,-1.16016 v -4.61718 q 0,-1.3125 -0.38672,-1.88672 -0.51563,-0.75 -1.44141,-0.75 -0.63281,0 -1.2539,0.33984 -0.97266,0.51563 -1.5,1.16016 v 5.7539 q 0,1.05469 0.14062,1.3711 0.15235,0.3164 0.4336,0.48047 0.29296,0.15234 1.17187,0.15234 v 0.42187 h -5.30859 v -0.42187 q 0.73828,0 1.03125,-0.15234 0.29297,-0.16407 0.44531,-0.50391 0.15234,-0.35156 0.15234,-1.34766 v -4.10156 q 0,-1.76953 -0.10547,-2.28516 -0.082,-0.38671 -0.25781,-0.52734 -0.17578,-0.15234 -0.48047,-0.15234 -0.32812,0 -0.78515,0.17578 l -0.17578,-0.42188 3.23437,-1.3125 h 0.50391 z"
         id="path430" />
      <path
         d="m 329.98437,378.62126 v 0.43359 q -0.84375,0.15235 -1.27734,0.53907 -0.62109,0.57421 -1.10156,1.75781 l -5.54297,13.52344 h -0.43359 l -5.95313,-13.69922 q -0.45703,-1.05469 -0.64453,-1.28907 -0.29297,-0.36328 -0.72656,-0.5625 -0.42188,-0.21093 -1.14844,-0.26953 v -0.43359 h 6.49219 v 0.43359 q -1.10157,0.10547 -1.42969,0.375 -0.32813,0.26953 -0.32813,0.69141 0,0.58594 0.53907,1.82812 l 4.04297,9.31641 3.75,-9.19922 q 0.55078,-1.35937 0.55078,-1.88672 0,-0.33984 -0.33985,-0.64453 -0.33984,-0.3164 -1.14843,-0.44531 -0.0586,-0.0117 -0.19922,-0.0352 v -0.43359 z"
         id="path432" />
      <path
         d="m 332.31641,377.84782 q 0.49218,0 0.83203,0.35156 0.35156,0.33985 0.35156,0.83204 0,0.49218 -0.35156,0.84375 -0.33985,0.35156 -0.83203,0.35156 -0.49219,0 -0.84375,-0.35156 -0.35157,-0.35157 -0.35157,-0.84375 0,-0.49219 0.33985,-0.83204 0.35156,-0.35156 0.85547,-0.35156 z m 0.97265,5.61328 v 8.625 q 0,1.00782 0.14063,1.34766 0.15234,0.32812 0.43359,0.49219 0.29297,0.16406 1.05469,0.16406 v 0.42187 h -5.21485 v -0.42187 q 0.78516,0 1.05469,-0.15234 0.26953,-0.15235 0.42188,-0.50391 0.16406,-0.35156 0.16406,-1.34766 v -4.13672 q 0,-1.74609 -0.10547,-2.26171 -0.082,-0.375 -0.25781,-0.51563 -0.17578,-0.15234 -0.48047,-0.15234 -0.32813,0 -0.79688,0.17578 l -0.16406,-0.42188 3.23438,-1.3125 z"
         id="path434" />
      <path
         d="m 339.37109,380.25017 v 3.52734 h 2.50782 v 0.82031 h -2.50782 v 6.96094 q 0,1.04297 0.29297,1.40625 0.30469,0.36328 0.77344,0.36328 0.38672,0 0.75,-0.23437 0.36328,-0.2461 0.5625,-0.71485 h 0.45703 q -0.41016,1.14844 -1.16016,1.73438 -0.75,0.57422 -1.54687,0.57422 -0.53906,0 -1.05469,-0.29297 -0.51562,-0.30469 -0.76172,-0.85547 -0.24609,-0.5625 -0.24609,-1.72266 v -7.21875 h -1.69922 v -0.38672 q 0.64453,-0.25781 1.3125,-0.86718 0.67969,-0.6211 1.20703,-1.46485 0.26953,-0.44531 0.75,-1.6289 z"
         id="path436" />
      <path
         d="m 349.00391,392.96501 q -1.65235,1.27734 -2.07422,1.47656 -0.63282,0.29297 -1.34766,0.29297 -1.11328,0 -1.83984,-0.76172 -0.71485,-0.76172 -0.71485,-2.0039 0,-0.78516 0.35157,-1.35938 0.48046,-0.79687 1.66406,-1.5 1.19531,-0.70312 3.96094,-1.71094 v -0.42187 q 0,-1.60547 -0.51563,-2.20313 -0.50391,-0.59765 -1.47656,-0.59765 -0.73828,0 -1.17188,0.39843 -0.44531,0.39844 -0.44531,0.91407 l 0.0234,0.67968 q 0,0.53907 -0.28125,0.83204 -0.26953,0.29296 -0.71485,0.29296 -0.43359,0 -0.71484,-0.30468 -0.26953,-0.30469 -0.26953,-0.83203 0,-1.00782 1.03125,-1.85157 1.03125,-0.84375 2.89453,-0.84375 1.42969,0 2.34375,0.48047 0.69141,0.36328 1.01953,1.13672 0.21094,0.50391 0.21094,2.0625 v 3.64453 q 0,1.53516 0.0586,1.88672 0.0586,0.33984 0.1875,0.45703 0.14063,0.11719 0.31641,0.11719 0.1875,0 0.32812,-0.082 0.2461,-0.15235 0.94922,-0.85547 v 0.65625 q -1.3125,1.75781 -2.50781,1.75781 -0.57422,0 -0.91406,-0.39844 -0.33985,-0.39843 -0.35156,-1.35937 z m 0,-0.76172 v -4.08984 q -1.76954,0.70312 -2.28516,0.99609 -0.92578,0.51563 -1.32422,1.07813 -0.39844,0.5625 -0.39844,1.23046 0,0.84375 0.50391,1.40625 0.50391,0.55079 1.16016,0.55079 0.89062,0 2.34375,-1.17188 z"
         id="path438" />
      <path
         d="m 355.37891,387.82048 q -0.0117,2.39062 1.16015,3.75 1.17188,1.35937 2.75391,1.35937 1.05469,0 1.82812,-0.57422 0.78516,-0.58593 1.3125,-1.99218 l 0.36328,0.23437 q -0.24609,1.60547 -1.42968,2.92969 -1.1836,1.3125 -2.96485,1.3125 -1.93359,0 -3.3164,-1.5 -1.3711,-1.51172 -1.3711,-4.05469 0,-2.7539 1.40625,-4.28906 1.41797,-1.54688 3.55078,-1.54688 1.80469,0 2.96485,1.19532 1.16015,1.18359 1.16015,3.17578 z m 0,-0.67969 h 4.96875 q -0.0586,-1.03125 -0.2461,-1.45312 -0.29297,-0.65625 -0.8789,-1.03125 -0.57422,-0.375 -1.20704,-0.375 -0.97265,0 -1.74609,0.76171 -0.76172,0.75 -0.89062,2.09766 z"
         id="path440" />
    </g>
  </g>
</svg>
